# xmcd
#
# Track frame offsets: 
#        150
#        9705
#        21826
#        34602
#        46453
#        56071
#        69022
#        82115
#        95151
#        106889
#        118962
#        129686
#        142264
#        152241
#        163500
#        173341
#        187877
#        196838
#        207172
#        217183
#        227089
#        238653
#        251299
#        260872
#        272836
#        282680
#        292703
#
# Disc length: 4105 seconds
#
# Revision: 0
# Processed by: cddbd v1.5.2PL0 Copyright (c) Steve Scherf et al.
# Submitted via: ExactAudioCopy v0.95b4
#
DISCID=9410071b
DTITLE=Jim Reeves - All Time Greatest
DYEAR=2007
DGENRE=Country
TTITLE0=Kimberley Jim
TTITLE1=Mexican Joe
TTITLE2=Bimbo
TTITLE3=Yonder Comes A Sucker
TTITLE4=Billy Bayou
TTITLE5=Four Walls
TTITLE6=Have I Told You Lately That I Love You?
TTITLE7=Distant Drums
TTITLE8=Welcome To My World
TTITLE9=Am I Losing You
TTITLE10=He'll Have To Go
TTITLE11=I Love You Because
TTITLE12=Blue Boy
TTITLE13=How Can I Write On Paper (What I Feel In My Heart)
TTITLE14=I Won't Come In While He's There
TTITLE15=Guilty
TTITLE16=Diamonds In The Sand
TTITLE17=Is It Really Over?
TTITLE18=When Two Worlds Collide
TTITLE19=It Hurts So Much
TTITLE20=Adios Amigo
TTITLE21=Blue Side Of Lonesome
TTITLE22=I'm Gonna Change Everything
TTITLE23=According To My Heart
TTITLE24=But You Love Me, Daddy
TTITLE25=Snowflake
TTITLE26=The Blizzard
EXTD=
EXTT0=
EXTT1=
EXTT2=
EXTT3=
EXTT4=
EXTT5=
EXTT6=
EXTT7=
EXTT8=
EXTT9=
EXTT10=
EXTT11=
EXTT12=
EXTT13=
EXTT14=
EXTT15=
EXTT16=
EXTT17=
EXTT18=
EXTT19=
EXTT20=
EXTT21=
EXTT22=
EXTT23=
EXTT24=
EXTT25=
EXTT26=
PLAYORDER=
